<svg width="86" height="86" viewBox="0 0 86 86" fill="none" xmlns="http://www.w3.org/2000/svg">
<path d="M60.8728 72.2183C57.4019 75.5829 53.6124 75.0516 49.9644 73.4579C46.104 71.8287 42.5624 71.7579 38.4894 73.4579C33.3894 75.6537 30.6978 75.0162 27.6519 72.2183C10.3686 54.4037 12.9186 27.2746 32.5394 26.2829C37.3207 26.5308 40.6499 28.9037 43.4478 29.1162C47.6269 28.2662 51.629 25.8225 56.0915 26.1412C61.4394 26.5662 65.4769 28.6912 68.1332 32.5162C57.0832 39.1391 59.704 53.6954 69.8332 57.7683C67.8144 63.0808 65.1936 68.3579 60.8374 72.2537L60.8728 72.2183ZM43.0936 26.0704C42.5624 18.1725 48.9728 11.6558 56.3394 11.0183C57.3665 20.1558 48.0519 26.9558 43.0936 26.0704Z" fill="#373D20"/>
</svg>
