<svg width="229" height="42" viewBox="0 0 229 42" fill="none" xmlns="http://www.w3.org/2000/svg">
<g filter="url(#filter0_d_108_2229)">
<path d="M11.5603 28.8403H20.9353V26.4965H23.2791V24.1528H27.9666V28.8403H25.6228V31.184H23.2791V33.5278H9.21655V31.184H6.8728V28.8403H4.52905V5.40275H6.8728V3.059H9.21655V0.715252H23.2791V3.059H25.6228V5.40275H27.9666V10.0903H23.2791V7.7465H20.9353V5.40275H11.5603V7.7465H9.21655V26.4965H11.5603V28.8403ZM39.6853 28.8403H49.0603V26.4965H51.4041V14.7778H49.0603V12.434H39.6853V14.7778H37.3416V26.4965H39.6853V28.8403ZM37.3416 33.5278V31.184H34.9978V28.8403H32.6541V12.434H34.9978V10.0903H37.3416V7.7465H51.4041V10.0903H53.7478V12.434H56.0916V28.8403H53.7478V31.184H51.4041V33.5278H37.3416ZM79.5291 12.434V0.715252H84.2166V33.5278H79.5291V28.8403H77.1853V31.184H74.8416V33.5278H67.8103V31.184H65.4666V28.8403H63.1228V26.4965H60.7791V14.7778H63.1228V12.434H65.4666V10.0903H67.8103V7.7465H74.8416V10.0903H77.1853V12.434H79.5291ZM67.8103 26.4965H70.1541V28.8403H72.4978V26.4965H74.8416V24.1528H77.1853V17.1215H74.8416V14.7778H72.4978V12.434H70.1541V14.7778H67.8103V17.1215H65.4666V24.1528H67.8103V26.4965ZM93.5916 14.7778V17.1215H107.654V14.7778H105.31V12.434H95.9353V14.7778H93.5916ZM112.342 26.4965V28.8403H109.998V31.184H107.654V33.5278H93.5916V31.184H91.2478V28.8403H88.9041V12.434H91.2478V10.0903H93.5916V7.7465H107.654V10.0903H109.998V12.434H112.342V19.4653H109.998V21.809H93.5916V26.4965H95.9353V28.8403H105.31V26.4965H112.342Z" fill="#373D20"/>
<path d="M138.123 5.40275H140.467V10.0903H135.779V7.7465H133.435V5.40275H124.06V7.7465H121.717V12.434H124.06V14.7778H135.779V17.1215H138.123V19.4653H140.467V28.8403H138.123V31.184H135.779V33.5278H121.717V31.184H119.373V28.8403H117.029V24.1528H121.717V26.4965H124.06V28.8403H133.435V26.4965H135.779V21.809H133.435V19.4653H121.717V17.1215H119.373V14.7778H117.029V5.40275H119.373V3.059H121.717V0.715252H135.779V3.059H138.123V5.40275ZM152.185 28.8403H161.56V26.4965H163.904V21.809H161.56V19.4653H152.185V21.809H149.842V26.4965H152.185V28.8403ZM149.842 33.5278V31.184H147.498V28.8403H145.154V19.4653H147.498V17.1215H149.842V14.7778H161.56V17.1215H163.904V12.434H161.56V10.0903H149.842V5.40275H163.904V7.7465H166.248V10.0903H168.592V33.5278H163.904V31.184H161.56V33.5278H149.842ZM192.029 14.7778V12.434H189.685V10.0903H180.31V12.434H177.967V14.7778H180.31V17.1215H189.685V14.7778H192.029ZM177.967 31.184H175.623V26.4965H180.31V28.8403H189.685V26.4965H192.029V19.4653H189.685V21.809H177.967V19.4653H175.623V17.1215H173.279V10.0903H175.623V7.7465H177.967V5.40275H192.029V7.7465H194.373V10.0903H196.717V28.8403H194.373V31.184H192.029V33.5278H177.967V31.184ZM206.092 14.7778V17.1215H220.154V14.7778H217.81V12.434H208.435V14.7778H206.092ZM224.842 26.4965V28.8403H222.498V31.184H220.154V33.5278H206.092V31.184H203.748V28.8403H201.404V12.434H203.748V10.0903H206.092V7.7465H220.154V10.0903H222.498V12.434H224.842V19.4653H222.498V21.809H206.092V26.4965H208.435V28.8403H217.81V26.4965H224.842Z" fill="#373D20"/>
<path d="M138.123 5.40275H140.467V10.0903H135.779V7.7465H133.435V5.40275H124.06V7.7465H121.717V12.434H124.06V14.7778H135.779V17.1215H138.123V19.4653H140.467V28.8403H138.123V31.184H135.779V33.5278H121.717V31.184H119.373V28.8403H117.029V24.1528H121.717V26.4965H124.06V28.8403H133.435V26.4965H135.779V21.809H133.435V19.4653H121.717V17.1215H119.373V14.7778H117.029V5.40275H119.373V3.059H121.717V0.715252H135.779V3.059H138.123V5.40275ZM152.185 28.8403H161.56V26.4965H163.904V21.809H161.56V19.4653H152.185V21.809H149.842V26.4965H152.185V28.8403ZM149.842 33.5278V31.184H147.498V28.8403H145.154V19.4653H147.498V17.1215H149.842V14.7778H161.56V17.1215H163.904V12.434H161.56V10.0903H149.842V5.40275H163.904V7.7465H166.248V10.0903H168.592V33.5278H163.904V31.184H161.56V33.5278H149.842ZM192.029 14.7778V12.434H189.685V10.0903H180.31V12.434H177.967V14.7778H180.31V17.1215H189.685V14.7778H192.029ZM177.967 31.184H175.623V26.4965H180.31V28.8403H189.685V26.4965H192.029V19.4653H189.685V21.809H177.967V19.4653H175.623V17.1215H173.279V10.0903H175.623V7.7465H177.967V5.40275H192.029V7.7465H194.373V10.0903H196.717V28.8403H194.373V31.184H192.029V33.5278H177.967V31.184ZM206.092 14.7778V17.1215H220.154V14.7778H217.81V12.434H208.435V14.7778H206.092ZM224.842 26.4965V28.8403H222.498V31.184H220.154V33.5278H206.092V31.184H203.748V28.8403H201.404V12.434H203.748V10.0903H206.092V7.7465H220.154V10.0903H222.498V12.434H224.842V19.4653H222.498V21.809H206.092V26.4965H208.435V28.8403H217.81V26.4965H224.842Z" fill="url(#paint0_linear_108_2229)"/>
</g>
<defs>
<filter id="filter0_d_108_2229" x="0.529053" y="0.715252" width="228.312" height="40.8125" filterUnits="userSpaceOnUse" color-interpolation-filters="sRGB">
<feFlood flood-opacity="0" result="BackgroundImageFix"/>
<feColorMatrix in="SourceAlpha" type="matrix" values="0 0 0 0 0 0 0 0 0 0 0 0 0 0 0 0 0 0 127 0" result="hardAlpha"/>
<feOffset dy="4"/>
<feGaussianBlur stdDeviation="2"/>
<feComposite in2="hardAlpha" operator="out"/>
<feColorMatrix type="matrix" values="0 0 0 0 0 0 0 0 0 0 0 0 0 0 0 0 0 0 0.25 0"/>
<feBlend mode="normal" in2="BackgroundImageFix" result="effect1_dropShadow_108_2229"/>
<feBlend mode="normal" in="SourceGraphic" in2="effect1_dropShadow_108_2229" result="shape"/>
</filter>
<linearGradient id="paint0_linear_108_2229" x1="2.1853" y1="14.8116" x2="253.515" y2="14.8116" gradientUnits="userSpaceOnUse">
<stop offset="0.230769" stop-color="#766153"/>
<stop offset="0.6875" stop-color="#545A32"/>
<stop offset="1" stop-color="#979A68"/>
</linearGradient>
</defs>
</svg>
