<svg width="45" height="45" viewBox="0 0 45 45" fill="none" xmlns="http://www.w3.org/2000/svg">
<path d="M3.67916 23.8932H1.84583V20.2266H3.67916V16.5599H5.51249V14.7266H7.34583V12.8932H9.17916V11.0599H12.8458V9.22656H27.5125V11.0599H25.6792V12.8932H23.8458V11.0599H20.1792V12.8932H16.5125V14.7266H14.6792V16.5599H12.8458V20.2266H11.0125V23.8932H12.8458V25.7266H11.0125V27.5599H9.17916V29.3932H5.51249V27.5599H3.67916V23.8932Z" fill="black" fill-opacity="0.5"/>
<path d="M14.6791 20.2266H16.5124V22.0599H14.6791V20.2266ZM20.1791 14.7266H22.0124V16.5599H20.1791V14.7266ZM16.5124 31.2266H14.6791V33.0599H12.8457V34.8932H11.0124V36.7266H9.17908V38.5599H7.34574V40.3932H5.51241V38.5599H3.67908V36.7266H5.51241V34.8932H7.34574V33.0599H9.17908V31.2266H11.0124V29.3932H12.8457V27.5599H14.6791V25.7266H16.5124V23.8932H18.3457V22.0599H20.1791V20.2266H22.0124V18.3932H23.8457V16.5599H25.6791V14.7266H27.5124V12.8932H29.3457V11.0599H31.1791V9.22656H33.0124V7.39323H34.8457V5.5599H36.6791V3.72656H38.5124V5.5599H40.3457V7.39323H38.5124V9.22656H36.6791V11.0599H34.8457V12.8932H33.0124V14.7266H31.1791V16.5599H29.3457V18.3932H27.5124V20.2266H25.6791V22.0599H23.8457V23.8932H22.0124V25.7266H20.1791V27.5599H18.3457V29.3932H16.5124V31.2266ZM22.0124 27.5599H23.8457V29.3932H22.0124V27.5599ZM23.8457 25.7266H25.6791V27.5599H23.8457V25.7266ZM27.5124 22.0599H29.3457V23.8932H27.5124V22.0599ZM25.6791 23.8932H27.5124V25.7266H25.6791V23.8932Z" fill="black" fill-opacity="0.5"/>
<path d="M42.1791 20.2266V23.8932H40.3458V27.5599H38.5125V29.3932H36.6791V31.2266H34.8458V33.0599H31.1791V34.8932H16.5125V33.0599H18.3458V31.2266H20.1791V33.0599H23.8458V31.2266H27.5125V29.3932H29.3458V27.5599H31.1791V23.8932H33.0125V20.2266H31.1791V18.3932H33.0125V16.5599H34.8458V14.7266H38.5125V16.5599H40.3458V20.2266H42.1791Z" fill="black" fill-opacity="0.5"/>
</svg>
