<svg width="48" height="49" viewBox="0 0 48 49" fill="none" xmlns="http://www.w3.org/2000/svg">
<path d="M32 22.7266V26.7266H30V28.7266H28V30.7266H26V32.7266H22V30.7266H20V28.7266H18V26.7266H16V22.7266H20V20.7266H22V16.7266H26V18.7266H28V20.7266H30V22.7266H32Z" fill="black" fill-opacity="0.5"/>
<path d="M44 22.7266V18.7266H42V16.7266H40V14.7266H38V12.7266H34V10.7266H14V12.7266H10V14.7266H8V16.7266H6V18.7266H4V22.7266H2V26.7266H4V30.7266H6V32.7266H8V34.7266H10V36.7266H14V38.7266H34V36.7266H38V34.7266H40V32.7266H42V30.7266H44V26.7266H46V22.7266H44ZM36 26.7266H34V30.7266H32V32.7266H30V34.7266H26V36.7266H22V34.7266H18V32.7266H16V30.7266H14V26.7266H12V22.7266H14V18.7266H16V16.7266H18V14.7266H22V12.7266H26V14.7266H30V16.7266H32V18.7266H34V22.7266H36V26.7266Z" fill="black" fill-opacity="0.5"/>
</svg>
