<svg width="86" height="86" viewBox="0 0 86 86" fill="none" xmlns="http://www.w3.org/2000/svg">
<path d="M11.839 27.0962C14.787 21.2296 19.3078 16.2979 24.8964 12.8519C30.4851 9.40588 36.9217 7.58122 43.4874 7.58167C53.0321 7.58167 61.0505 11.0915 67.1811 16.8077L57.0271 26.9652C53.3544 23.4554 48.6865 21.6669 43.4874 21.6669C34.2613 21.6669 26.4519 27.9002 23.6717 36.2692C22.9634 38.3942 22.5596 40.6608 22.5596 42.9983C22.5596 45.3358 22.9634 47.6025 23.6717 49.7275C26.4555 58.1 34.2613 64.3298 43.4874 64.3298C48.2509 64.3298 52.3061 63.0725 55.4794 60.9475C57.3191 59.7363 58.8941 58.1645 60.1091 56.3274C61.3241 54.4902 62.154 52.4257 62.5486 50.2587H43.4874V36.5596H76.8428C77.2607 38.8758 77.4874 41.2912 77.4874 43.8023C77.4874 54.5902 73.6269 63.671 66.9261 69.8335C61.0682 75.2452 53.0499 78.415 43.4874 78.415C38.8358 78.4169 34.2296 77.5021 29.9318 75.7229C25.634 73.9437 21.7289 71.335 18.4398 68.0458C15.1507 64.7567 12.542 60.8517 10.7628 56.5539C8.98363 52.2561 8.06882 47.6498 8.07068 42.9983C8.07068 37.2821 9.43776 31.8775 11.839 27.0962Z" fill="#373D20"/>
</svg>
