<svg width="183" height="182" viewBox="0 0 183 182" fill="none" xmlns="http://www.w3.org/2000/svg">
<g clip-path="url(#clip0_50_103)">
<mask id="mask0_50_103" style="mask-type:luminance" maskUnits="userSpaceOnUse" x="0" y="0" width="183" height="182">
<path d="M0.235352 0.0797119H182.09V181.935H0.235352V0.0797119Z" fill="white"/>
</mask>
<g mask="url(#mask0_50_103)">
<path d="M38.728 0.0797119H46.9267V8.17983H54.4282V0.0797119H62.6268V24.5998H54.4282V16.3936H46.9267V24.5998H38.7356L38.728 0.0797119ZM73.4017 8.21014H66.1881V0.0797119H88.8215V8.21014H81.6003V24.5998H73.4017V8.21014ZM92.4131 0.0797119H100.96L106.219 8.69509L111.47 0.0797119H120.017V24.5998H111.856V12.4458L106.219 21.1673H106.075L100.43 12.4534V24.5998H92.4131V0.0797119ZM124.094 0.0797119H132.3V16.4997H143.817V24.6074H124.094V0.0797119Z" fill="#EFF1ED"/>
<path fill-rule="evenodd" clip-rule="evenodd" d="M38.4704 167.326L22.9673 35.8218H159.358L143.848 167.31L91.0871 181.935L38.4704 167.326ZM69.8177 95.3414L68.3477 78.8229H130.065L131.504 62.6984H50.7305L55.0798 111.473H110.977L109.106 132.387L91.1174 137.251H91.1023L73.1441 132.402L71.9923 119.543H55.7921L58.0501 144.867L91.0871 154.035L124.177 144.867L128.208 99.6756L128.602 95.349L69.8177 95.3414Z" fill="#EFF1ED"/>
</g>
</g>
<defs>
<clipPath id="clip0_50_103">
<rect width="181.855" height="181.855" fill="white" transform="translate(0.235352 0.0797119)"/>
</clipPath>
</defs>
</svg>
