<svg width="221" height="221" viewBox="0 0 221 221" fill="none" xmlns="http://www.w3.org/2000/svg">
<path d="M43.8333 10.9347C34.9928 10.9347 26.5143 14.4466 20.2631 20.6978C14.0119 26.949 10.5 35.4275 10.5 44.268V177.601C10.5 186.442 14.0119 194.92 20.2631 201.172C26.5143 207.423 34.9928 210.935 43.8333 210.935H177.167C186.007 210.935 194.486 207.423 200.737 201.172C206.988 194.92 210.5 186.442 210.5 177.601V44.268C210.5 35.4275 206.988 26.949 200.737 20.6978C194.486 14.4466 186.007 10.9347 177.167 10.9347H43.8333ZM125.322 155.99C133.322 162.435 141.307 165.612 149.278 165.524C154.167 165.524 157.915 164.627 160.522 162.835C161.736 162.047 162.724 160.956 163.388 159.67C164.053 158.384 164.371 156.947 164.311 155.501C164.328 153.924 163.998 152.362 163.346 150.926C162.693 149.49 161.733 148.215 160.533 147.19C157.926 144.916 152.993 142.635 145.733 140.346C137.015 137.827 130.293 134.568 125.567 130.568C120.93 126.568 118.567 120.987 118.478 113.824C118.478 107.061 121.411 101.398 127.278 96.8347C132.981 92.2717 140.278 89.9902 149.167 89.9902C161.552 89.9902 171.489 93.0051 178.978 99.0347L170.422 112.357C167.341 109.962 163.807 108.215 160.033 107.224C156.642 106.087 153.098 105.469 149.522 105.39C145.3 105.39 141.919 106.164 139.378 107.712C136.859 109.268 135.6 111.305 135.6 113.824C135.6 116.594 137.144 118.957 140.233 120.912C143.344 122.794 148.641 124.872 156.122 127.146C165.167 129.835 171.604 133.42 175.433 137.901C179.263 142.383 181.178 148.087 181.178 155.012C181.178 162.101 178.448 168.212 172.989 173.346C167.611 178.398 159.789 181.046 149.522 181.29C136.078 181.29 124.833 177.257 115.789 169.19L125.322 155.99ZM63.8778 163.079C66.4852 164.709 69.6222 165.524 73.2889 165.524C77.1185 165.524 80.2963 164.424 82.8222 162.224C85.3407 159.942 86.6037 155.99 86.6111 150.368V91.4569H103.111V153.546C102.867 163.161 100.096 170.087 94.8 174.324C91.902 176.774 88.5327 178.604 84.9 179.701C81.5313 180.727 78.0324 181.262 74.5111 181.29C68.4 181.29 62.9815 180.231 58.2556 178.112C53.2037 175.838 48.9667 171.805 45.5444 166.012L57.0333 156.601C59.1444 159.453 61.4259 161.612 63.8778 163.079Z" fill="#EFF1ED"/>
</svg>
