<?xml version="1.0" encoding="UTF-8"?>
<svg version="1.1" xmlns="http://www.w3.org/2000/svg" width="256" height="256" viewBox="0 0 256 256">
  <!-- Main boat hull -->
  <path d="M0 0 C1.2065625 0.0309375 1.2065625 0.0309375 2.4375 0.0625 C2.4375 1.0525 2.4375 2.0425 2.4375 3.0625 C3.4275 3.0625 4.4175 3.0625 5.4375 3.0625 C5.4375 3.7225 5.4375 4.3825 5.4375 5.0625 C6.51 5.145 7.5825 5.2275 8.6875 5.3125 C12.4375 6.0625 12.4375 6.0625 14.25390625 8.03515625 C17.13510276 10.71018485 19.25951092 10.81280583 23.125 11.25 C29.36805556 11.99305556 29.36805556 11.99305556 30.4375 13.0625 C31.99503051 13.28920908 33.56127359 13.45685092 35.12890625 13.59765625 C36.54526367 13.72817383 36.54526367 13.72817383 37.99023438 13.86132812 C38.98345703 13.94833984 39.97667969 14.03535156 41 14.125 C42.49563477 14.26131836 42.49563477 14.26131836 44.02148438 14.40039062 C46.49315702 14.62508814 48.96513256 14.84560351 51.4375 15.0625 C51.4375 15.7225 51.4375 16.3825 51.4375 17.0625 C54.0775 17.0625 56.7175 17.0625 59.4375 17.0625 C59.4375 17.7225 59.4375 18.3825 59.4375 19.0625 C60.38625 19.041875 61.335 19.02125 62.3125 19 C65.4375 19.0625 65.4375 19.0625 67.4375 20.0625 C67.8515625 22.34765625 67.8515625 22.34765625 68.0625 25.125 C68.17464844 26.50365234 68.17464844 26.50365234 68.2890625 27.91015625 C68.33804688 28.62042969 68.38703125 29.33070313 68.4375 30.0625 C67.4475 30.3925 66.4575 30.7225 65.4375 31.0625 C65.4375 31.7225 65.4375 32.3825 65.4375 33.0625 C63.7875 33.0625 62.1375 33.0625 60.4375 33.0625 C60.4375 32.4025 60.4375 31.7425 60.4375 31.0625 C58.8114713 31.12250106 57.18648451 31.2112885 55.5625 31.3125 C54.20511719 31.38210937 54.20511719 31.38210937 52.8203125 31.453125 C50.26639456 31.81861148 50.26639456 31.81861148 49.1171875 34.109375 C48.89289063 34.75390625 48.66859375 35.3984375 48.4375 36.0625 C47.4475 36.0625 46.4575 36.0625 45.4375 36.0625 C45.1075 37.0525 44.7775 38.0425 44.4375 39.0625 C43.7775 39.0625 43.1175 39.0625 42.4375 39.0625 C42.4375 40.0525 42.4375 41.0425 42.4375 42.0625 C41.81875 42.248125 41.2 42.43375 40.5625 42.625 C37.38147134 44.77687233 37.24298053 47.43783763 36.4375 51.0625 C35.7775 51.0625 35.1175 51.0625 34.4375 51.0625 C34.4375 51.7225 34.4375 52.3825 34.4375 53.0625 C32.6875 55.1875 32.6875 55.1875 30.4375 57.0625 C29.1175 57.0625 27.7975 57.0625 26.4375 57.0625 C26.1075 58.3825 25.7775 59.7025 25.4375 61.0625 C20.38747778 62.09840199 15.56333611 62.16501672 10.4375 62.0625" fill="#22626A" transform="translate(70,130)"/>
  
  <!-- Boat mast structure -->
  <path d="M0 0 C3.86828312 1.51968265 5.43842183 3.79802729 8 7 C10.09207039 8.8667705 12.22574996 10.6675424 14.390625 12.44921875 C14.92171875 12.96097656 15.4528125 13.47273437 16 14 C16 14.66 16 15.32 16 16 C16.66 16 17.32 16 18 16 C19.33895632 17.66215268 20.67130142 19.32963607 22 21 C23.64295195 22.36244796 25.30824337 23.69864875 27 25 C28.8125 26.625 28.8125 26.625 30 28 C30 28.66 30 29.32 30 30 C31.98 30.495 31.98 30.495 34 31" fill="#1C3C4D" transform="translate(69,149)"/>
  
  <!-- Sail -->
  <path d="M0 0 C4.75840749 2.81178624 6.95999195 5.29289076 10 10 C11.62935241 11.37868281 13.29749607 12.71274093 15 14 C16.68762851 15.6454378 18.3540349 17.31288577 20 19 C20.886875 19.825 21.77375 20.65 22.6875 21.5 C24.97217828 23.96992246 26.00099201 25.82133822 27 29" fill="#C3AA9B" transform="translate(149,120)"/>
  
  <!-- Boat rigging -->
  <path d="M0 0 C0 0.66 0 1.32 0 2 C-0.99 2.495 -0.99 2.495 -2 3 C-2.144375 3.66 -2.28875 4.32 -2.4375 5 C-2.623125 5.66 -2.80875 6.32 -3 7 C-3.99 7.33 -4.98 7.66 -6 8 C-6.12375 8.7425 -6.2475 9.485 -6.375 10.25 C-6.95486701 12.80141485 -7.73708739 14.7267573 -9 17" fill="#1F6069" transform="translate(145,71)"/>
</svg>
<path d="M0 0 C3.86828312 1.51968265 5.43842183 3.79802729 8 7 C10.09207039 8.8667705 12.22574996 10.6675424 14.390625 12.44921875 C14.92171875 12.96097656 15.4528125 13.47273437 16 14 C16 14.66 16 15.32 16 16 C16.66 16 17.32 16 18 16 C19.33895632 17.66215268 20.67130142 19.32963607 22 21 C23.64295195 22.36244796 25.30824337 23.69864875 27 25 C28.8125 26.625 28.8125 26.625 30 28 C30 28.66 30 29.32 30 30 C31.98 30.495 31.98 30.495 34 31 C33.01 31 32.02 31 31 31 C31.66 33.31 32.32 35.62 33 38 C31.35 38.33 29.7 38.66 28 39 C28.495 38.01 28.495 38.01 29 37 C26.69 36.67 24.38 36.34 22 36 C22.33 35.01 22.66 34.02 23 33 C21.68 33.33 20.36 33.66 19 34 C18.83312552 36.41645782 18.83312552 36.41645782 19 39 C19.66 39.66 20.32 40.32 21 41 C21.99 41 22.98 41 24 41 C24 40.34 24 39.68 24 39 C25.98 39.495 25.98 39.495 28 40 C28 43.88418324 26.61894755 46.5030733 25 50 C24.67 50.33 24.34 50.66 24 51 C25.32 51.66 26.64 52.32 28 53 C27.34 53 26.68 53 26 53 C26 53.66 26 54.32 26 55 C24.00045254 55.04254356 21.99958364 55.04080783 20 55 C19.67 54.67 19.34 54.34 19 54 C17.44051458 53.84313751 15.87457332 53.74923361 14.30859375 53.68359375 C13.36435547 53.64169922 12.42011719 53.59980469 11.44726562 53.55664062 C10.45404297 53.51732422 9.46082031 53.47800781 8.4375 53.4375 C6.94186523 53.37272461 6.94186523 53.37272461 5.41601562 53.30664062 C2.9441585 53.20019702 0.4721969 53.09818072 -2 53 C-2 53.66 -2 54.32 -2 55 C-9.41718776 56.17407746 -16.75235666 56.14818859 -24.25 56.125 C-26.14878906 56.13080078 -26.14878906 56.13080078 -28.0859375 56.13671875 C-29.30023438 56.13542969 -30.51453125 56.13414062 -31.765625 56.1328125 C-33.41739746 56.13112061 -33.41739746 56.13112061 -35.10253906 56.12939453 C-37.58417911 56.01856969 -39.63640819 55.72169101 -42 55 C-42 54.34 -42 53.68 -42 53 C-42.99 53 -43.98 53 -45 53 C-45 52.34 -45 51.68 -45 51 C-47.31 50.67 -49.62 50.34 -52 50 C-52 49.34 -52 48.68 -52 48 C-53.32 47.67 -54.64 47.34 -56 47 C-56 46.34 -56 45.68 -56 45 C-56.66 45 -57.32 45 -58 45 C-58.33 41.04 -58.66 37.08 -59 33 C-57.68 33 -56.36 33 -55 33 C-55 33.66 -55 34.32 -55 35 C-53.9275 34.979375 -52.855 34.95875 -51.75 34.9375 C-48.85209576 34.9857984 -46.71387859 35.13155885 -44 36 C-44 36.66 -44 37.32 -44 38 C-41.36 38 -38.72 38 -36 38 C-36 37.34 -36 36.68 -36 36 C-35.01 36 -34.02 36 -33 36 C-33 35.34 -33 34.68 -33 34 C-29.59437148 33.22157062 -26.49234244 32.90021879 -23 33 C-22.67 31.68 -22.34 30.36 -22 29 C-21.01 29 -20.02 29 -19 29 C-19 28.34 -19 27.68 -19 27 C-18.01 27 -17.02 27 -16 27 C-16 26.34 -16 25.68 -16 25 C-15.2575 24.773125 -14.515 24.54625 -13.75 24.3125 C-10.48930737 22.75626034 -9.16484695 20.836696 -7 18 C-6.34 18 -5.68 18 -5 18 C-4.71125 17.0925 -4.4225 16.185 -4.125 15.25 C-3.23468224 12.67797092 -2.28505587 10.38653234 -1 8 C-0.34 8 0.32 8 1 8 C0.505 4.04 0.505 4.04 0 0 Z " fill="#1C3C4D" transform="translate(69,149)"/>
<path d="M0 0 C0.99 0 1.98 0 3 0 C2.67 2.64 2.34 5.28 2 8 C1.34 8 0.68 8 0 8 C-0.33 10.64 -0.66 13.28 -1 16 C-1.66 16 -2.32 16 -3 16 C-2.75443359 17.11761719 -2.75443359 17.11761719 -2.50390625 18.2578125 C-1.8017028 23.47262574 -1.89543577 28.62020731 -1.9375 33.875 C-1.94201172 34.94492188 -1.94652344 36.01484375 -1.95117188 37.1171875 C-1.96290251 39.74484986 -1.97931772 42.37239538 -2 45 C-2.66 45 -3.32 45 -4 45 C-4 45.66 -4 46.32 -4 47 C-5.17382812 48.60449219 -5.17382812 48.60449219 -7 50 C-9.40429688 50.35644531 -9.40429688 50.35644531 -12.21875 50.328125 C-13.74048828 50.32039063 -13.74048828 50.32039063 -15.29296875 50.3125 C-16.35128906 50.291875 -17.40960938 50.27125 -18.5 50.25 C-19.55832031 50.24484375 -20.61664063 50.2396875 -21.70703125 50.234375 C-29.53561189 50.15479604 -29.53561189 50.15479604 -33 49 C-33 48.34 -33 47.68 -33 47 C-33.66 47 -34.32 47 -35 47 C-35 45.35 -35 43.7 -35 42 C-34.01 42 -33.02 42 -32 42 C-31.62875 41.071875 -31.62875 41.071875 -31.25 40.125 C-30 38 -30 38 -27.9609375 37.1484375 C-27.31382813 36.76945312 -26.66671875 36.39046875 -26 36 C-25.37374244 33.87773524 -25.37374244 33.87773524 -25.375 31.5 C-25.19322034 27.19322034 -25.19322034 27.19322034 -23 25 C-22.71125 23.88625 -22.4225 22.7725 -22.125 21.625 C-20.9497146 17.83796926 -19.86511288 16.58784389 -17 14 C-16.67 13.01 -16.34 12.02 -16 11 C-14.4765625 9.39453125 -14.4765625 9.39453125 -12.625 7.8125 C-12.01914063 7.28269531 -11.41328125 6.75289063 -10.7890625 6.20703125 C-9 5 -9 5 -6 5 C-6 4.34 -6 3.68 -6 3 C-4.02 2.67 -2.04 2.34 0 2 C0 1.34 0 0.68 0 0 Z " fill="#1D4050" transform="translate(147,69)"/>
<path d="M0 0 C0.99 0 1.98 0 3 0 C2.67 2.64 2.34 5.28 2 8 C1.34 8 0.68 8 0 8 C-0.33 10.64 -0.66 13.28 -1 16 C-1.66 16 -2.32 16 -3 16 C-2.83628906 16.74507812 -2.67257813 17.49015625 -2.50390625 18.2578125 C-1.8017028 23.47262574 -1.89543577 28.62020731 -1.9375 33.875 C-1.94201172 34.94492188 -1.94652344 36.01484375 -1.95117188 37.1171875 C-1.96290251 39.74484986 -1.97931772 42.37239538 -2 45 C-4.97 45.495 -4.97 45.495 -8 46 C-10.1519437 42.77208445 -10.20086443 41.71599191 -10 38 C-9.34 38 -8.68 38 -8 38 C-8.66 37.01 -9.32 36.02 -10 35 C-10.4140625 32.73828125 -10.4140625 32.73828125 -10.625 30.3125 C-10.69976562 29.50425781 -10.77453125 28.69601563 -10.8515625 27.86328125 C-10.92503906 26.94095703 -10.92503906 26.94095703 -11 26 C-11.66 26 -12.32 26 -13 26 C-13.33 24.02 -13.66 22.04 -14 20 C-13.34 20 -12.68 20 -12 20 C-12 20.66 -12 21.32 -12 22 C-11.01 22 -10.02 22 -9 22 C-9 21.34 -9 20.68 -9 20 C-9.66 19.67 -10.32 19.34 -11 19 C-9.91661198 14.1247539 -8.63812022 10.47994108 -5 7 C-4.67 6.01 -4.34 5.02 -4 4 C-3.34 4 -2.68 4 -2 4 C-2 3.34 -2 2.68 -2 2 C-1.34 2 -0.68 2 0 2 C0 1.34 0 0.68 0 0 Z " fill="#348C89" transform="translate(147,69)"/>
<path d="M0 0 C4.75840749 2.81178624 6.95999195 5.29289076 10 10 C11.62935241 11.37868281 13.29749607 12.71274093 15 14 C16.68762851 15.6454378 18.3540349 17.31288577 20 19 C20.886875 19.825 21.77375 20.65 22.6875 21.5 C24.97217828 23.96992246 26.00099201 25.82133822 27 29 C22.25855513 35.04942966 22.25855513 35.04942966 20 37 C19.34 37 18.68 37 18 37 C17.67 37.99 17.34 38.98 17 40 C16.34 40 15.68 40 15 40 C14.67 40.99 14.34 41.98 14 43 C13.34 43 12.68 43 12 43 C11.67 43.99 11.34 44.98 11 46 C10.34 46 9.68 46 9 46 C9 46.66 9 47.32 9 48 C8.02149805 49.02104551 7.02019573 50.0206121 6 51 C5.67 51.66 5.34 52.32 5 53 C2.4375 53.625 2.4375 53.625 0 54 C0.53898221 50.02479542 2.38559826 48.3247943 5.25390625 45.62890625 C6.10791016 44.80712891 6.96191406 43.98535156 7.84179688 43.13867188 C9.6557128 41.42111616 11.47343051 39.70756665 13.29492188 37.99804688 C14.57399414 36.76344727 14.57399414 36.76344727 15.87890625 35.50390625 C17.06335327 34.38737671 17.06335327 34.38737671 18.27172852 33.24829102 C20.19945166 31.11660632 20.19945166 31.11660632 20.39428711 28.37475586 C19.79491482 24.76479037 17.68684251 23.38830446 15 21 C14.2575 20.236875 13.515 19.47375 12.75 18.6875 C9.62366254 15.63221566 6.37164682 12.74919192 3.0859375 9.8671875 C-0.75775212 6.42658143 -0.75775212 6.42658143 -2 5 C-1.74853421 2.86254078 -1.54074221 1.54074221 0 0 Z " fill="#C3AA9B" transform="translate(149,120)"/>
<path d="M0 0 C1.32 0.33 2.64 0.66 4 1 C4 4.16542604 3.52436826 5.22706099 2.0625 7.9375 C0.62300865 10.61526348 -0.36687956 13.02100173 -1 16 C-1.66 16 -2.32 16 -3 16 C-3.33 17.98 -3.66 19.96 -4 22 C-4.66 22 -5.32 22 -6 22 C-6.33 23.98 -6.66 25.96 -7 28 C-7.66 28 -8.32 28 -9 28 C-9 28.99 -9 29.98 -9 31 C-9.66 31 -10.32 31 -11 31 C-11.33 32.98 -11.66 34.96 -12 37 C-12.66 37 -13.32 37 -14 37 C-14.1546875 38.2684375 -14.1546875 38.2684375 -14.3125 39.5625 C-15.0828854 43.41442701 -16.36274514 46.44075031 -18 50 C-18.66 50 -19.32 50 -20 50 C-20 50.99 -20 51.98 -20 53 C-20.99 53 -21.98 53 -23 53 C-23.79953138 49.71303767 -24.09658936 48.28976808 -23 45 C-22.34 45 -21.68 45 -21 45 C-20.505 42.03 -20.505 42.03 -20 39 C-19.34 39 -18.68 39 -18 39 C-17.505 36.03 -17.505 36.03 -17 33 C-16.34 33 -15.68 33 -15 33 C-14.67 30.69 -14.34 28.38 -14 26 C-13.34 26 -12.68 26 -12 26 C-11.67 24.02 -11.34 22.04 -11 20 C-10.34 20 -9.68 20 -9 20 C-8.67 18.02 -8.34 16.04 -8 14 C-7.34 14 -6.68 14 -6 14 C-6 13.01 -6 12.02 -6 11 C-5.34 11 -4.68 11 -4 11 C-3.67 9.02 -3.34 7.04 -3 5 C-2.34 5 -1.68 5 -1 5 C-0.67 3.35 -0.34 1.7 0 0 Z " fill="#CCB3A1" transform="translate(136,120)"/>
<path d="M0 0 C0.99 0.33 1.98 0.66 3 1 C2.25 3.4375 2.25 3.4375 1 6 C-1.0625 6.625 -1.0625 6.625 -3 7 C-3.33 7.99 -3.66 8.98 -4 10 C-4.66 10 -5.32 10 -6 10 C-6.33 10.99 -6.66 11.98 -7 13 C-7.66 13 -8.32 13 -9 13 C-9.2578125 13.58265625 -9.515625 14.1653125 -9.78125 14.765625 C-11.09834017 17.1802903 -12.55088384 18.81740177 -14.5 20.75 C-15.1084375 21.36359375 -15.716875 21.9771875 -16.34375 22.609375 C-18 24 -18 24 -20 24 C-20.41870553 26.33071879 -20.41870553 26.33071879 -20 29 C-17.84600677 30.94212485 -17.84600677 30.94212485 -15 33 C-13.85036335 34.2697887 -12.72719071 35.56381602 -11.625 36.875 C-8.8326449 40.14900587 -5.90998529 42.95891387 -2.578125 45.67578125 C-2.05734375 46.11277344 -1.5365625 46.54976562 -1 47 C-0.43796875 47.46792969 0.1240625 47.93585938 0.703125 48.41796875 C2 50 2 50 2 54 C0.68 54 -0.64 54 -2 54 C-3.30859375 52.609375 -3.30859375 52.609375 -4.4375 50.75 C-6.56987066 47.47197678 -8.8918984 45.39767838 -12 43 C-12 42.34 -12 41.68 -12 41 C-12.556875 40.773125 -13.11375 40.54625 -13.6875 40.3125 C-16.65855185 38.62622733 -18.64522125 36.469646 -21 34 C-21.94875 33.154375 -22.8975 32.30875 -23.875 31.4375 C-26 29 -26 29 -25.98071289 27.21386719 C-24.50643926 23.88583302 -22.00563776 21.63914788 -19.43359375 19.140625 C-18.88010757 18.59138367 -18.3266214 18.04214233 -17.75636292 17.47625732 C-15.99033441 15.72699536 -14.21415308 13.98846356 -12.4375 12.25 C-11.23694559 11.064495 -10.0370674 9.87830476 -8.83789062 8.69140625 C-5.89970905 5.78626707 -2.95237926 2.89070663 0 0 Z " fill="#BFA899" transform="translate(102,119)"/>
<path d="M0 0 C0 0.66 0 1.32 0 2 C-0.99 2.495 -0.99 2.495 -2 3 C-2.144375 3.66 -2.28875 4.32 -2.4375 5 C-2.623125 5.66 -2.80875 6.32 -3 7 C-3.99 7.33 -4.98 7.66 -6 8 C-6.12375 8.7425 -6.2475 9.485 -6.375 10.25 C-6.95486701 12.80141485 -7.73708739 14.7267573 -9 17 C-8.01 17.33 -7.02 17.66 -6 18 C-5.1875 19.9375 -5.1875 19.9375 -5 22 C-5.66 22.66 -6.32 23.32 -7 24 C-7 22.68 -7 21.36 -7 20 C-7.99 20 -8.98 20 -10 20 C-10 19.34 -10 18.68 -10 18 C-10.66 18 -11.32 18 -12 18 C-11.67 19.98 -11.34 21.96 -11 24 C-10.34 24 -9.68 24 -9 24 C-9 24.66 -9 25.32 -9 26 C-10.65 26 -12.3 26 -14 26 C-14 24.68 -14 23.36 -14 22 C-14.99 22 -15.98 22 -17 22 C-16.88490339 20.58249437 -16.75746342 19.16598831 -16.625 17.75 C-16.55539063 16.96109375 -16.48578125 16.1721875 -16.4140625 15.359375 C-15.65320123 11.02390134 -13.87784439 8.57339006 -10.5625 5.75 C-9.96566406 5.22921875 -9.36882812 4.7084375 -8.75390625 4.171875 C-7 3 -7 3 -4 3 C-4 2.34 -4 1.68 -4 1 C-2 0 -2 0 0 0 Z " fill="#1F6069" transform="translate(145,71)"/>
<path d="M0 0 C0.99 0 1.98 0 3 0 C2.67 2.64 2.34 5.28 2 8 C1.34 8 0.68 8 0 8 C-0.33 10.64 -0.66 13.28 -1 16 C-1.66 16 -2.32 16 -3 16 C-3 17.98 -3 19.96 -3 22 C-3.66 21.67 -4.32 21.34 -5 21 C-5.66 21.99 -6.32 22.98 -7 24 C-7.28875 23.360625 -7.5775 22.72125 -7.875 22.0625 C-8.82823451 19.84793921 -8.82823451 19.84793921 -11 19 C-9.91661198 14.1247539 -8.63812022 10.47994108 -5 7 C-4.67 6.01 -4.34 5.02 -4 4 C-3.34 4 -2.68 4 -2 4 C-2 3.34 -2 2.68 -2 2 C-1.34 2 -0.68 2 0 2 C0 1.34 0 0.68 0 0 Z " fill="#2B787A" transform="translate(147,69)"/>
<path d="M0 0 C0.33 0 0.66 0 1 0 C1.66 2.64 2.32 5.28 3 8 C2.34 8 1.68 8 1 8 C1.66 10.31 2.32 12.62 3 15 C4.32 15 5.64 15 7 15 C7 17 7 17 6.01171875 18.61328125 C2.85342546 20.79035721 -0.49856357 20.31314936 -4.1875 20.1875 C-4.93708984 20.17396484 -5.68667969 20.16042969 -6.45898438 20.14648438 C-8.30629767 20.11118539 -10.15324066 20.05737917 -12 20 C-12 19.01 -12 18.02 -12 17 C-8.37 17 -4.74 17 -1 17 C-1.33 16.01 -1.66 15.02 -2 14 C-1.67 13.34 -1.34 12.68 -1 12 C-2.65 11.67 -4.3 11.34 -6 11 C-6.33 9.68 -6.66 8.36 -7 7 C-5.68 7 -4.36 7 -3 7 C-3 7.99 -3 8.98 -3 10 C-2.01 10 -1.02 10 0 10 C-0.08378906 9.36191406 -0.16757813 8.72382812 -0.25390625 8.06640625 C-0.35574219 7.24011719 -0.45757812 6.41382812 -0.5625 5.5625 C-0.66691406 4.73878906 -0.77132812 3.91507812 -0.87890625 3.06640625 C-0.91886719 2.38449219 -0.95882812 1.70257813 -1 1 C-0.67 0.67 -0.34 0.34 0 0 Z " fill="#205561" transform="translate(136,99)"/>
<path d="M0 0 C1.32 0.33 2.64 0.66 4 1 C4 4.16542604 3.52436826 5.22706099 2.0625 7.9375 C0.62300865 10.61526348 -0.36687956 13.02100173 -1 16 C-1.66 16 -2.32 16 -3 16 C-3.33 16.99 -3.66 17.98 -4 19 C-4 17.68 -4 16.36 -4 15 C-4.99 15 -5.98 15 -7 15 C-7.33 16.98 -7.66 18.96 -8 21 C-8.66 21 -9.32 21 -10 21 C-10 21.99 -10 22.98 -10 24 C-10.66 23.67 -11.32 23.34 -12 23 C-11.505 21.515 -11.505 21.515 -11 20 C-10.34 20 -9.68 20 -9 20 C-8.67 18.02 -8.34 16.04 -8 14 C-7.34 14 -6.68 14 -6 14 C-6 13.01 -6 12.02 -6 11 C-5.34 11 -4.68 11 -4 11 C-3.67 9.02 -3.34 7.04 -3 5 C-2.34 5 -1.68 5 -1 5 C-0.67 3.35 -0.34 1.7 0 0 Z " fill="#C7AE9D" transform="translate(136,120)"/>
<path d="M0 0 C0.66 0 1.32 0 2 0 C3.48046875 1.5390625 3.48046875 1.5390625 5.1875 3.625 C8.04403122 6.99439486 11.00236403 9.88744169 14.421875 12.67578125 C14.94265625 13.11277344 15.4634375 13.54976562 16 14 C16.56203125 14.46792969 17.1240625 14.93585938 17.703125 15.41796875 C19 17 19 17 19 21 C17.68 21 16.36 21 15 21 C13.69140625 19.609375 13.69140625 19.609375 12.5625 17.75 C10.43012934 14.47197678 8.1081016 12.39767838 5 10 C5 9.34 5 8.68 5 8 C4.360625 7.773125 3.72125 7.54625 3.0625 7.3125 C1 6 1 6 0.25 3.4375 C0 1 0 1 0 0 Z " fill="#B59B8E" transform="translate(85,152)"/>
<path d="M0 0 C1.875 0.125 1.875 0.125 4 1 C5.25 4.0625 5.25 4.0625 6 7 C5.505 7.45375 5.01 7.9075 4.5 8.375 C2.77390663 9.87635519 2.77390663 9.87635519 3 12 C-2.75 12.125 -2.75 12.125 -5 11 C-5 10.01 -5 9.02 -5 8 C-4.34 8 -3.68 8 -3 8 C-3.33 6.35 -3.66 4.7 -4 3 C-3.01 3 -2.02 3 -1 3 C-0.67 2.01 -0.34 1.02 0 0 Z " fill="#1D5460" transform="translate(108,176)"/>
<path d="M0 0 C0.12375 0.5775 0.2475 1.155 0.375 1.75 C1.02855574 4.10280066 1.65913896 5.95342262 3 8 C5.05000871 8.80528889 5.05000871 8.80528889 7 9 C5.68 9.33 4.36 9.66 3 10 C2.67 12.31 2.34 14.62 2 17 C1.67 17 1.34 17 1 17 C1 15.35 1 13.7 1 12 C0.071875 11.773125 -0.85625 11.54625 -1.8125 11.3125 C-5 10 -5 10 -6.9375 7.5625 C-8 5 -8 5 -7 2 C-5.515 2.99 -5.515 2.99 -4 4 C-2.68 2.68 -1.36 1.36 0 0 Z " fill="#1C5560" transform="translate(123,177)"/>
<path d="M0 0 C0.99 0.33 1.98 0.66 3 1 C3.99 0.7215625 3.99 0.7215625 5 0.4375 C5.66 0.293125 6.32 0.14875 7 0 C7.99 0.66 8.98 1.32 10 2 C10.66 1.34 11.32 0.68 12 0 C12.33 0.66 12.66 1.32 13 2 C14.64363134 2.72159424 16.31050386 3.39351421 18 4 C17.67 4.99 17.34 5.98 17 7 C15.35 7 13.7 7 12 7 C12 6.34 12 5.68 12 5 C11.09507812 5.17789063 11.09507812 5.17789063 10.171875 5.359375 C7.73414325 5.75255754 5.47079212 6.0467792 3 6 C0.4375 4.0625 0.4375 4.0625 -1 2 C-0.67 1.34 -0.34 0.68 0 0 Z " fill="#25646D" transform="translate(229,180)"/>
<path d="M0 0 C0.66 0 1.32 0 2 0 C2 0.99 2 1.98 2 3 C3.98 3 5.96 3 8 3 C7.01 3.495 7.01 3.495 6 4 C6 4.66 6 5.32 6 6 C4.00045254 6.04254356 1.99958364 6.04080783 0 6 C-0.33 5.67 -0.66 5.34 -1 5 C-2.68183948 4.76712992 -4.3712416 4.58735834 -6.0625 4.4375 C-6.98160156 4.35371094 -7.90070313 4.26992187 -8.84765625 4.18359375 C-9.91306641 4.09271484 -9.91306641 4.09271484 -11 4 C-11 3.34 -11 2.68 -11 2 C-7.37 2 -3.74 2 0 2 C0 1.34 0 0.68 0 0 Z " fill="#192D41" transform="translate(89,198)"/>
<path d="M0 0 C0.99 0 1.98 0 3 0 C2.67 2.64 2.34 5.28 2 8 C1.34 8 0.68 8 0 8 C0 9.32 0 10.64 0 12 C-0.99 11.67 -1.98 11.34 -3 11 C-3 9.02 -3 7.04 -3 5 C-2.34 5 -1.68 5 -1 5 C-0.67 3.35 -0.34 1.7 0 0 Z " fill="#328180" transform="translate(147,69)"/>
<path d="M0 0 C0.66 0.66 1.32 1.32 2 2 C1.625 4.125 1.625 4.125 1 6 C0.34 6 -0.32 6 -1 6 C-1.33 6.99 -1.66 7.98 -2 9 C-2 7.68 -2 6.36 -2 5 C-2.99 5 -3.98 5 -5 5 C-5.33 6.98 -5.66 8.96 -6 11 C-6.66 11 -7.32 11 -8 11 C-8 11.99 -8 12.98 -8 14 C-8.66 13.67 -9.32 13.34 -10 13 C-9.67 12.01 -9.34 11.02 -9 10 C-8.34 10 -7.68 10 -7 10 C-6.67 8.02 -6.34 6.04 -6 4 C-5.34 4 -4.68 4 -4 4 C-4 3.01 -4 2.02 -4 1 C-2.125 0.375 -2.125 0.375 0 0 Z " fill="#B6A194" transform="translate(134,130)"/>
<path d="M0 0 C0.33 0 0.66 0 1 0 C1.66 2.64 2.32 5.28 3 8 C2.34 8 1.68 8 1 8 C1 9.65 1 11.3 1 13 C-1.31 12.34 -3.62 11.68 -6 11 C-6.33 9.68 -6.66 8.36 -7 7 C-5.68 7 -4.36 7 -3 7 C-3 7.99 -3 8.98 -3 10 C-2.01 10 -1.02 10 0 10 C-0.08378906 9.36191406 -0.16757813 8.72382812 -0.25390625 8.06640625 C-0.40666016 6.82697266 -0.40666016 6.82697266 -0.5625 5.5625 C-0.66691406 4.73878906 -0.77132812 3.91507812 -0.87890625 3.06640625 C-0.91886719 2.38449219 -0.95882812 1.70257813 -1 1 C-0.67 0.67 -0.34 0.34 0 0 Z " fill="#28676E" transform="translate(136,99)"/>
<path d="M0 0 C0.763125 0.20625 1.52625 0.4125 2.3125 0.625 C2.3125 1.285 2.3125 1.945 2.3125 2.625 C1.3225 2.625 0.3325 2.625 -0.6875 2.625 C-0.3575 4.275 -0.0275 5.925 0.3125 7.625 C-0.6775 7.625 -1.6675 7.625 -2.6875 7.625 C-2.81125 6.820625 -2.935 6.01625 -3.0625 5.1875 C-3.371875 3.9190625 -3.371875 3.9190625 -3.6875 2.625 C-4.3475 2.295 -5.0075 1.965 -5.6875 1.625 C-2.6875 -0.375 -2.6875 -0.375 0 0 Z " fill="#1A2F42" transform="translate(86.6875,188.375)"/>
<path d="M0 0 C0.66 0 1.32 0 2 0 C2 0.66 2 1.32 2 2 C2.99 2 3.98 2 5 2 C7 4 7 4 7 7 C6.34 7 5.68 7 5 7 C4.67 7.99 4.34 8.98 4 10 C3.67 8.68 3.34 7.36 3 6 C2.34 6 1.68 6 1 6 C0.67 4.02 0.34 2.04 0 0 Z " fill="#2C7E7E" transform="translate(133,89)"/>
<path d="M0 0 C0.99 0.33 1.98 0.66 3 1 C5.14255793 0.61067144 5.14255793 0.61067144 7 0 C7.66 0.99 8.32 1.98 9 3 C6.36 3.66 3.72 4.32 1 5 C0.34 3.68 -0.32 2.36 -1 1 C-0.67 0.67 -0.34 0.34 0 0 Z " fill="#2D7A7C" transform="translate(229,180)"/>
<path d="M0 0 C2.31 0.33 4.62 0.66 7 1 C7 1.66 7 2.32 7 3 C6.01 3 5.02 3 4 3 C3.67 3.66 3.34 4.32 3 5 C1.02 5 -0.96 5 -3 5 C-2.67 4.34 -2.34 3.68 -2 3 C-1.67 3 -1.34 3 -1 3 C-0.67 2.01 -0.34 1.02 0 0 Z " fill="#1A3749" transform="translate(154,176)"/>
<path d="M0 0 C0.99 0.33 1.98 0.66 3 1 C2.1875 3.4375 2.1875 3.4375 1 6 C0.01 6.33 -0.98 6.66 -2 7 C-2 6.34 -2 5.68 -2 5 C-2.66 4.67 -3.32 4.34 -4 4 C-2.68 2.68 -1.36 1.36 0 0 Z " fill="#B39D91" transform="translate(102,119)"/>
<path d="M0 0 C0.99 0.33 1.98 0.66 3 1 C2.34 1.66 1.68 2.32 1 3 C0.83322718 6.58343976 0.83322718 6.58343976 1 10 C0.01 10.495 0.01 10.495 -1 11 C-2.25 3.375 -2.25 3.375 0 0 Z " fill="#2D7A7D" transform="translate(176,156)"/>
<path d="M0 0 C1.65 1.65 3.3 3.3 5 5 C4.67 5.99 4.34 6.98 4 8 C2.02 6.35 0.04 4.7 -2 3 C-1.34 2.67 -0.68 2.34 0 2 C0 1.34 0 0.68 0 0 Z " fill="#BFA394" transform="translate(81,148)"/>
<path d="M0 0 C0.66 0 1.32 0 2 0 C2 0.66 2 1.32 2 2 C3.32 2 4.64 2 6 2 C6 3.32 6 4.64 6 6 C4.68 6 3.36 6 2 6 C0 3 0 3 0 0 Z " fill="#AD9489" transform="translate(98,167)"/>
<path d="M0 0 C0.99 0 1.98 0 3 0 C2.67 1.98 2.34 3.96 2 6 C1.01 6 0.02 6 -1 6 C-0.67 4.02 -0.34 2.04 0 0 Z M-3 6 C-2.01 6.495 -2.01 6.495 -1 7 C-1.66 7.66 -2.32 8.32 -3 9 C-3 8.01 -3 7.02 -3 6 Z " fill="#DEC3AD" transform="translate(129,135)"/>
<path d="M0 0 C0.99 0.33 1.98 0.66 3 1 C3.33 1.99 3.66 2.98 4 4 C3.01 5.485 3.01 5.485 2 7 C1.01 6.67 0.02 6.34 -1 6 C-0.67 4.02 -0.34 2.04 0 0 Z " fill="#296B72" transform="translate(227,182)"/>
<path d="M0 0 C0.99 0.33 1.98 0.66 3 1 C4.1875 4.0625 4.1875 4.0625 5 7 C4.34 7 3.68 7 3 7 C3 6.34 3 5.68 3 5 C1.02 5 -0.96 5 -3 5 C-2.34 4.34 -1.68 3.68 -1 3 C-0.34 3.33 0.32 3.66 1 4 C0.67 2.68 0.34 1.36 0 0 Z " fill="#2E7F80" transform="translate(212,174)"/>
<path d="M0 0 C0.66 0 1.32 0 2 0 C3.38938077 1.96147874 4.7260411 3.96166576 6 6 C5.34 6 4.68 6 4 6 C3.67 6.66 3.34 7.32 3 8 C0.37613513 4.93882432 0 4.26826873 0 0 Z " fill="#B0968B" transform="translate(85,152)"/>
<path d="M0 0 C0.99 0 1.98 0 3 0 C3.33 1.98 3.66 3.96 4 6 C1.525 5.01 1.525 5.01 -1 4 C-0.67 2.68 -0.34 1.36 0 0 Z " fill="#CDB3A1" transform="translate(77,144)"/>
<path d="M0 0 C0.33 0.66 0.66 1.32 1 2 C1.99 2.33 2.98 2.66 4 3 C4.8125 4.9375 4.8125 4.9375 5 7 C4.34 7.66 3.68 8.32 3 9 C3 7.68 3 6.36 3 5 C2.01 5 1.02 5 0 5 C-0.33 4.01 -0.66 3.02 -1 2 C-0.67 1.34 -0.34 0.68 0 0 Z " fill="#22696F" transform="translate(135,86)"/>
<path d="M0 0 C0.33 0.66 0.66 1.32 1 2 C-1.17508418 6.69360269 -1.17508418 6.69360269 -4.1875 7.8125 C-4.785625 7.874375 -5.38375 7.93625 -6 8 C-4.73058503 4.08597051 -3.48832306 2.20927127 0 0 Z " fill="#1E4A59" transform="translate(135,77)"/>
<path d="M0 0 C1.32 0.33 2.64 0.66 4 1 C4.33 2.32 4.66 3.64 5 5 C3.68 4.67 2.36 4.34 1 4 C0.67 2.68 0.34 1.36 0 0 Z " fill="#C5A998" transform="translate(89,158)"/>
<path d="M0 0 C0.33 0.99 0.66 1.98 1 3 C0.34 3 -0.32 3 -1 3 C-1.33 4.98 -1.66 6.96 -2 9 C-3.0625 7.1875 -3.0625 7.1875 -4 5 C-3.67 4.01 -3.34 3.02 -3 2 C-2.01 2 -1.02 2 0 2 C0 1.34 0 0.68 0 0 Z " fill="#B49A8E" transform="translate(131,139)"/>
<path d="M0 0 C0.66 0.66 1.32 1.32 2 2 C3.32 2 4.64 2 6 2 C6 2.66 6 3.32 6 4 C4.1875 5.0625 4.1875 5.0625 2 6 C1.01 5.67 0.02 5.34 -1 5 C-0.67 3.35 -0.34 1.7 0 0 Z " fill="#26656D" transform="translate(137,112)"/>
<path d="M0 0 C1.98 0.495 1.98 0.495 4 1 C4 2.32 4 3.64 4 5 C3.34 5 2.68 5 2 5 C1.67 4.34 1.34 3.68 1 3 C0.01 3.495 0.01 3.495 -1 4 C-0.67 2.68 -0.34 1.36 0 0 Z " fill="#287579" transform="translate(190,191)"/>
</svg>
