<svg width="182" height="183" viewBox="0 0 182 183" fill="none" xmlns="http://www.w3.org/2000/svg">
<g clip-path="url(#clip0_50_89)">
<mask id="mask0_50_89" style="mask-type:luminance" maskUnits="userSpaceOnUse" x="0" y="0" width="182" height="183">
<path d="M0.0020752 0.910156H181.857V182.765H0.0020752V0.910156Z" fill="white"/>
</mask>
<g mask="url(#mask0_50_89)">
<path d="M90.2779 0.910156C44.1019 0.910156 46.9813 21.0354 46.9813 21.0354L47.0343 41.8881H91.0887V48.147H29.5535C29.5535 48.147 0.0020752 44.7751 0.0020752 91.6027C0.0020752 138.43 25.7876 136.763 25.7876 136.763H41.1695V115.039C41.1695 115.039 40.3436 89.125 66.5534 89.125H110.244C110.244 89.125 134.794 89.519 134.794 65.2717V25.1726C134.794 25.1726 138.523 0.910156 90.2779 0.910156ZM65.9851 14.9281C70.3648 14.9281 73.911 18.4895 73.911 22.8994C73.911 27.3019 70.3648 30.8632 65.9851 30.8632C61.6054 30.8632 58.0593 27.3019 58.0593 22.8994C58.0593 18.4895 61.5979 14.9281 65.9851 14.9281Z" fill="#EFF1ED"/>
<path d="M91.5887 182.765C137.75 182.765 134.87 162.64 134.87 162.64L134.817 141.787H90.7628V135.528H152.313C152.313 135.528 181.865 138.9 181.865 92.0725C181.865 45.2449 156.071 46.9119 156.071 46.9119H140.69V68.636C140.69 68.636 141.516 94.5503 115.306 94.5503H71.6226C71.6226 94.5503 47.0722 94.1563 47.0722 118.404V158.503C47.0722 158.503 43.3441 182.765 91.5887 182.765ZM115.882 168.747C111.494 168.747 107.956 165.186 107.956 160.776C107.956 156.373 111.494 152.812 115.882 152.812C120.261 152.812 123.807 156.373 123.807 160.776C123.807 165.186 120.261 168.747 115.882 168.747Z" fill="#EFF1ED"/>
</g>
</g>
<defs>
<clipPath id="clip0_50_89">
<rect width="181.855" height="181.855" fill="white" transform="translate(0.0020752 0.910156)"/>
</clipPath>
</defs>
</svg>
